<svg xmlns="http://www.w3.org/2000/svg" width="989.152" height="541.471" viewBox="0 0 261.713 143.264"><path d="M257.306 95.22v.027l.004.037a1.338 1.338 0 0 0-.004-.063" style="fill:#3964a4;fill-opacity:1;fill-rule:nonzero;stroke:none;stroke-width:.352778"/><path d="M200.311 14.515c.139.08.284.153.436.22v.132h-.629c.068-.114.134-.23.193-.352m61.402 87.188c-.476-1.2-1.756-2.364-2.812-3.121a6.919 6.919 0 0 0-2.107-1.008 4.18 4.18 0 0 0 .513-2.327c-.06-.73-.616-4.143-5.787-4.685a8.48 8.48 0 0 1-.896-.432c-.643-.382-1.647-.752-2.582-.983a3.77 3.77 0 0 0-.99-.623c-.402-.172-.823-.27-1.345-.358a8.57 8.57 0 0 0-.4-.274 4.062 4.062 0 0 0 1.084-2.065c.223-1.17-.082-2.372-.858-3.395-.505-.698-3.807-5.25-4.718-6.345-.46-.55-2.158-3.073-3.173-4.58-.716-1.064-1.335-1.983-1.726-2.538-.656-.929-1.511-1.837-2.265-2.639-.3-.32-.738-.785-.93-1.02-.313-.597-1.205-1.978-4.488-6.483-3.099-4.253-4.249-5.68-4.754-6.238l-1.074-1.449a987.055 987.055 0 0 1-3.48-4.703c-1.174-1.76-3.39-4.853-5.18-6.056-1.007-.676-4.045-2.162-10.474-5.239-1.85-.885-3.943-1.887-4.352-2.109-.772-.456-1.693-.733-2.879-.855.514-1.027.963-1.843 1.197-2.149l.073-.076.105-.133c.153-.193.354-.468.565-.807 1.256.203 2.743.388 3.997.388h.046c.483.06 1.443.16 2.488.16 5.633 0 6.369-3.26 6.444-4.492.183-2.24.152-2.836.126-3.103a44.578 44.578 0 0 1-.03-.981c.3-.46.86-1.407.921-2.627a4.451 4.451 0 0 0 .568-2.49 4.354 4.354 0 0 0-1.585-3.094 5.245 5.245 0 0 0-.46-.946c.05-.239.09-.47.115-.697.178-1.603-.55-3.631-1.124-4.559l-.009-.014c-.552-1.686-2.289-3.271-4.418-3.272-.433 0-.863.066-1.277.196-.84.262-2.13.902-2.646 1.165l-.126.064-.12.074c-.04.025-.081.051-.121.078-1.019-1.46-2.594-2.943-3.98-3.8l-.049-.03-.05-.029C196.398.837 194.843 0 192.881 0a6.456 6.456 0 0 0-3.714 1.148l-.012.008c-2.024 1.39-3.245 3.446-3.44 5.79 0 .004-.004.04-.007.102a5.475 5.475 0 0 0-1.427-.147c-1.991.027-2.823.562-3.14.766-.698.449-1.21 1.018-1.57 1.472a4.61 4.61 0 0 0-.501.07 4.134 4.134 0 0 0-1.434-.256 4.25 4.25 0 0 0-1.755.38 4.027 4.027 0 0 0-2.007.137 4.556 4.556 0 0 0-.54-.033c-1.093 0-2.627.407-3.651 1.55-.153.169-.377.38-.613.605-.27.255-.575.544-.876.865a82.706 82.706 0 0 0-1.734 1.902c-.673.764-5.046 6.138-5.542 6.749l-.232.286-.17.327c-.552 1.076-.833 2.763.039 4.273l.16.28a4.628 4.628 0 0 0-.117 1.145v.049c.01.512.036 1.871.896 3.172.591.894 2.022 2.396 4.965 2.396h.076l.024-.001c.372-.008.73-.044 1.071-.107.373.225.71.344.92.402l.258.073.266.033c.16.019.326.029.496.029 1.217 0 2.352-.51 3.116-1.401.778-.907 1.1-2.094.908-3.344l-.049-.315-.018-.04a.756.756 0 0 1-.001-.158c.095-.86-.114-1.755-.622-2.672.36-.372.762-.775.92-.896l.123-.097c.284-.227.525-.481.724-.762.187-.09.4-.197.655-.325.258-.13.727-.365 1.236-.612.007.515.002.944-.013 1.172-.162.692-.185 1.456-.156 2.111-.667.706-1.453 1.69-1.616 3.052-.018.148-.043.358-.043 1.316-.341.633-.693 1.445-.91 1.969-.764 1.841-1.06 3.088-.99 4.168.024.347.036.743.049 1.126.018.547.035 1.074.08 1.57-1.103 1.204-1.895 2.095-2.472 2.79-1.335-1.227-4.916-4.23-8.03-6.783-3.328-2.727-7.615-6.168-9.14-7.078-1.727-1.029-6.516-3.995-6.564-4.025l-.014-.009-.014-.008c-.383-.233-1.408-.774-2.644-.774-.361 0-.715.045-1.054.133a6.71 6.71 0 0 0-.433-1.2c-.824-1.725-2.362-2.755-4.116-2.755-.931 0-1.834.288-2.685.855l-.085.057-.082.062c-.345.26-.72.536-.986.729-.332.085-.777.2-1.181.302-.561.131-2.075.587-3.476 1.906-.078.073-.15.143-.217.21-1.724.027-3.503.169-4.968 1.106-.492.314-2.332 1.181-3.741 1.795l-.119.051-.114.06c-1.333.7-2.71 2.177-2.574 4.222.07 1.04.602 2.935 3.387 3.95l.585.215h.624c.121 0 1.223-.008 2.597-.268.172-.029.917-.092 2.041-.092 1.8 0 3.125.16 3.64.32.605.186 1.237.465 1.905.76.72.316 1.494.658 2.34.929.293.922.929 1.82 2.007 2.574.074.059.17.141.288.24 1.27 1.07 3.894 3.279 7.028 4.031l.103.034.162.102c.541.34 9.747 6.128 15.968 9.974h-24.307a9.318 9.318 0 0 0-7.805 4.236v-.147l-.03-4.101H53.378l-.011 3.393.03 8.892h-7.555V64.63c0-2.314-.177-4.967-1.491-7.11-1.489-2.427-3.99-3.658-7.435-3.658H.268v17.586H28.345v1.5H9.717c-3.12 0-5.544.974-7.204 2.895C.822 77.798 0 80.66 0 84.59v14.697c0 1.259 0 5.088 2.868 7.63 1.946 1.723 4.75 2.526 8.823 2.526h16.303v14.549c0 3.007.806 5.402 2.395 7.116 1.705 1.838 4.159 2.77 7.295 2.77h63.558v-5.574c1.923 8.551 9.573 14.96 18.696 14.96 10.57 0 19.168-8.598 19.168-19.168 0-7.174-4.047-13.719-10.29-16.99v-2.98a9.318 9.318 0 0 0 7.805 4.236h16.968v15.277c0 5.82 3.886 9.886 9.45 9.886h35.844v.05H228.834l.875-1.895.674-1.728h2.73l.74 1.792.9 1.83H250.336v-2.884l1.1 1.66 1.047 1.224h9.224V110.26z" style="fill:#3968b0;fill-opacity:1;fill-rule:nonzero;stroke:none;stroke-width:.352778"/><path d="M169.107 16.69c-.647.735-5.453 6.644-5.453 6.644s-.265.515-.044.897c0 0 1.279.794 1.205 1.337 0 0 0 .221-.044.265-.044.044-.662.896-.647 1.5.015.602-.044 2.19 2.367 2.175 0 0 1.514-.03 1.499-.853 0 0-.103-1.161.544-1.264 0 0 .558.044.617.926 0 0-.118 1.485.353 1.617 0 0 .72.088.603-.676 0 0-.177-.647-.089-1.44 0 0 .044-.398-.72-1.309 0 0-.918-.904-.36-1.521.64-.766.866-1.322 1.257-1.728 1.19-1.234 1.348-1.313 1.543-1.47.22-.176-.029-.735.177-1.028.083-.119.69.014.896-.015.206-.03 3.896-2.058 5.1-2.234.148-.03 2.5-.926 2.117 2.337 0 0 .162 3.278-.03 3.91-.19.632-.014 1.97-.014 1.97s.03.573-.25.984c-.279.412-1.381 1.264-1.455 1.882-.028.238-.015 1.705-.015 1.705s-.22.544-.323.676c-.102.132-1.66 3.293-1.587 4.425.074 1.131.05 2.427.19 3.101.148.706-.116 1.235-.308 1.47-.19.235-3.425 3.645-3.895 4.572-.47.926-1.37.89-1.562.857-.378-.064-1.049-.099-2.45-1.475-1.56-1.529-14.45-12.23-16.816-13.64-1.772-1.057-6.615-4.058-6.615-4.058s-.823-.5-1.206-.117c-.381.382-2.175 3.204-2.175 3.204s-.486.674-1 .353c-.47-.294-1.117-1.235-1.117-1.235s.147-3.41.265-3.821c.117-.412 0-.736 0-.882 0-.148-.412-2.323-1.911-1.323 0 0-1.499 1.131-1.646 1.175-.147.045-1.823.47-1.823.47s-.995.21-1.882 1.045c-.75.705-.896 1.087-1.631 1.146-.735.059-3.013-.103-4.072.573-1.058.676-4.233 2.058-4.233 2.058s-1.793.941.382 1.735c0 0 .852 0 1.94-.206s5.38-.294 7.38.323c1.998.617 3.703 1.764 5.585 2 1.881.234 1.529.558 1.117 1.234-.412.676 0 1.146.558 1.528.56.383 3.3 3.087 6.182 3.734 0 0 1.02.294 1.227.559 0 0 18.572 11.678 21.137 13.111 2.48 1.386 3.895.368 3.895.368s.765-.558 1.059-.676c.294-.118 8.533-3.726 12.457-9.503.662-.375 1.074-.412 1.94-.088 1.048.39 1.875.198 2.14.022.264-.177 1.308-.42 2.777-.243 1.47.177 2.023.475 2.176.551.264.133 1 .236 1.543-.014.364-.168.823.014 1.044.367.281.45.074.58.75 1.08.676.5 6.702 3.874 7.32 4.227.617.352 1.704.999 1.91 1.352 0 0 16.964 29.133 17.728 30.78.764 1.646 1.411 3.41 1.588 3.645.176.235 1.484 1.845 1.506 1.933.022.088.176.617.198.713.023.095 1.713 1.837 1.713 1.837s.345.412.558.302c.214-.11 1.94-1.103 2.029-1.176.088-.074 1.404-.67 1.345.566 0 0 .03 1.903-.397 2.83-.426.925-.044 1.763 0 1.984.044.22.118.352.088.529-.029.176-.213 1.639.816 1.61h7.6s.977-.86 1.535-.816c.853-.023 1.567.692 1.669.771.485.375 5.556.022 5.556.022s3.374-.073 3.27-1.374c0 0-.05-1.242-2.94-1.448-.271-.02-1.41-.515-2.028-.882-.617-.367-2.16-.757-2.425-.728-.265.03-.53-.58-.735-.669-.206-.088-1.066-.198-1.294-.234-.189-.03-1.05-.868-1.477-.897-.426-.03-2.895-2.463-3.616-2.521-.72-.059-.764-.676-.264-.985.5-.308 3.418-1.455 3.594-1.558.176-.103.588-.412.103-1.029 0 0-3.72-5.137-4.602-6.196-.882-1.058-4.012-5.843-5.07-7.342-1.06-1.5-3.176-3.351-3.44-4.057-.265-.705-8.026-11.377-8.82-12.082-.75-1.015-4.586-6.174-4.762-6.439-.177-.264-2.76-4.125-4.234-5.115-1.543-1.036-13.758-6.703-14.64-7.232-.882-.53-2.778-.44-3.307-.44l-1.786-.045s-1.235-.176-.64-1.83c0 0 2.205-5.05 3.242-6.13 0 0 .992-1.256.86-2.138 0 0 0-.507.55-.441 0 0 3.881.882 6.174.816 0 0 5.16.771 5.204-1.037 0 0 .176-2.138.132-2.557-.023-.22-.063-1.824-.044-1.94.066-.397.154-.552.419-1.037.097-.178.53-.705.507-1.19-.022-.485 0-1.103.309-1.323.309-.22.463-1.037-.199-1.39-.661-.352-.904-.837-.882-1.234.019-.336-.61-1.036-.727-1.147-.117-.11-.243-.485-.176-.794.066-.308.284-1.058.33-1.477.066-.595-.33-1.852-.617-2.315-.287-.463-.353-.64-.353-.771 0-.133-.595-1.03-1.3-.809-.646.202-2.096.94-2.096.94s-.286.177-.066.662c.22.485.684 1.08.618 1.323-.067.243-.353.64-.838.353 0 0-.617-.309-1.058-1.014 0 0-.508-.53-.706-.397 0 0-.375.242 0 .86 0 0 .86 1.124 1.036 1.565 0 0 .383.676 1.522.419.31-.07.926.199.948.375 0 0 .154.198.264.397.11.198.287.53.243.882 0 0-.257.169-.33.323a1.256 1.256 0 0 0-.096.53s.183.403.183.624c0 0-.154 1.72-.397 2.205 0 0-.463.794-.22 1.521 0 0 .132 1.367-.287 1.918 0 0-.661 1.191-1.786.31 0 0-1.146-.817-1.764-.728-.617.088-.393.222-1.08.418-.309.089-.772.485-1.102-.176 0 0-.067-1.235-.441-1.543 0 0-1.58-1.764-1.786-1.852a.296.296 0 0 1-.183-.28c.002-.433.004-1.27.27-1.617 0 0 .993-1.455 1.236-1.587 0 0 .536-.522.242-1.103-.127-.252-.367-.705-.242-1.146.036-.125.617-.309.793-.33.177-.023-.022-1.206-.022-1.412.001-.206.331-.485.507-.573.177-.088.177-.772.133-1.058-.044-.287-1.47-2.404-3.396-3.594 0 0-2.072-1.191-3.748-.022-.256.178-1.785 1.154-1.955 3.197-.024.293-.044 2.469.456 3.44 0 0 .375 1.013-.155 1.432 0 0-1.058.691-1.675.045 0 0-2.14-1.808-3.477-1.728 0 0-1.021.008-1.33.206-.375.24-.682.647-.946.997-.177.235-.332.48-.478.735-.1.175-.206.5-.382.605-.18.108-.4.037-.553-.066-.325-.218-.684-.33-1.08-.197-.412.138-.595.623-1.12.39-.254-.111-.335-.407-.562-.542-.197-.116-.463-.09-.655.022-.23.135-.331.406-.58.521-.179.084-.433.1-.633.07-.47-.067-.781-.665-1.318-.205-.17.147-.314.415-.584.361-.207-.041-.376-.276-.59-.333-.37-.098-1.02.082-1.26.35-.466.519-1.05 1.004-1.538 1.526-.562.6-1.12 1.205-1.663 1.822M56.895 57.124l.03 12.42h-14.61V64.63c0-4.389-.092-7.24-5.397-7.24H3.796v10.53h28.076v8.557H9.717c-3.843 0-6.19 1.758-6.19 8.114v14.696c0 4.466 1.76 6.629 8.164 6.629h30.271V95.342H14.105v-7.898h22.813c4.587 0 5.397-2.741 5.397-7.859h14.61v34.667h10.749l-.03-57.128z" style="fill:#f1e926;fill-opacity:1;fill-rule:nonzero;stroke:none;stroke-width:.352778"/><path d="M97.714 119.822v10.528h-60.03c-4.337 0-6.162-2.256-6.162-6.359v-14.918h10.167v10.763zM197.112 120.175v9.823h-34.073c-4.167 0-5.922-3.072-5.922-6.36v-15.624h10.49v12.174zM157.768 94.596h-16.722V67.863h16.722zm4.424-37.327H136.62a5.79 5.79 0 0 0-5.791 5.791v35.985a5.79 5.79 0 0 0 5.79 5.789h25.572a5.79 5.79 0 0 0 5.79-5.79V63.06a5.79 5.79 0 0 0-5.79-5.79" style="fill:#f1e926;fill-opacity:1;fill-rule:nonzero;stroke:none;stroke-width:.352778"/><path d="M186.811 57.817v12.599h-3.236v-12.6h-10.217v56.018h10.217V80.29h3.236v33.544h10.215V57.817ZM119.938 129.623a5.527 5.527 0 1 1 0-11.054 5.527 5.527 0 0 1 0 11.054m5.35-20.227-.03-52.138h-10.09l.03 37.861H84.747l-.03-37.861H74.226s.109 33.84.109 39.106c0 5.264-1.443 9.505 8.428 9.505h31.996v3.47c-6.091 2.137-10.46 7.935-10.46 14.757 0 8.638 7.002 15.64 15.64 15.64 8.636 0 15.639-7.002 15.639-15.64 0-6.758-4.287-12.514-10.29-14.7" style="fill:#f1e926;fill-opacity:1;fill-rule:nonzero;stroke:none;stroke-width:.352778"/><path d="M203.452 104.713h1.402c.909 0 1.476-.038 1.702-.111.227-.074.404-.201.532-.382.128-.18.192-.406.192-.677 0-.303-.084-.548-.253-.735-.169-.186-.407-.304-.714-.353-.153-.02-.615-.03-1.383-.03h-1.478zm-1.895 5.204v-9.019h3.988c1.003 0 1.732.082 2.186.243.455.162.819.45 1.092.864.273.415.41.889.41 1.422 0 .676-.208 1.235-.621 1.676-.414.44-1.033.719-1.857.834.41.23.748.482 1.015.756.266.275.626.763 1.079 1.465l1.146 1.759h-2.267l-1.37-1.963c-.487-.701-.82-1.143-.999-1.325a1.463 1.463 0 0 0-.57-.376c-.2-.067-.518-.101-.953-.101h-.384v3.765zM210.547 100.898h1.895v4.885c0 .775.023 1.277.07 1.507.082.369.275.666.58.89.305.222.722.334 1.251.334.538 0 .943-.105 1.216-.317.273-.21.438-.47.494-.778.055-.307.083-.818.083-1.531v-4.99h1.895v4.737c0 1.083-.051 1.848-.154 2.295a2.51 2.51 0 0 1-.566 1.132c-.276.308-.644.552-1.105.735-.461.182-1.062.273-1.805.273-.896 0-1.576-.099-2.039-.298-.464-.199-.83-.457-1.098-.775a2.459 2.459 0 0 1-.532-1c-.123-.516-.185-1.28-.185-2.288zM219.588 109.917v-9.019h1.844l3.84 6.023v-6.023h1.761v9.019h-1.9l-3.784-5.881v5.88zM228.597 109.917v-9.019h1.844l3.841 6.023v-6.023h1.761v9.019h-1.902l-3.783-5.881v5.88zM237.53 100.898h1.895v9.019h-1.894zM240.791 109.917v-9.019h1.843l3.841 6.023v-6.023h1.761v9.019h-1.901l-3.784-5.881v5.88zM254.147 106.601v-1.52h4.084v3.593c-.397.37-.972.694-1.725.975a6.513 6.513 0 0 1-2.289.421c-.982 0-1.837-.197-2.567-.593a3.844 3.844 0 0 1-1.645-1.698 5.316 5.316 0 0 1-.551-2.402c0-.94.205-1.774.614-2.504.41-.73 1.01-1.29 1.8-1.68.601-.299 1.35-.449 2.246-.449 1.166 0 2.076.235 2.731.705.655.47 1.076 1.119 1.264 1.947l-1.882.338a1.912 1.912 0 0 0-.746-1.049c-.365-.256-.82-.384-1.367-.384-.828 0-1.486.252-1.974.757-.489.504-.733 1.253-.733 2.245 0 1.07.247 1.873.742 2.408.495.536 1.144.803 1.946.803.397 0 .795-.074 1.194-.224a4.13 4.13 0 0 0 1.028-.545v-1.144zM202.411 130.4v-17.498h5.673l3.406 11.935 3.368-11.935h5.686v17.497h-3.521v-13.774l-3.726 13.774h-3.65l-3.714-13.774V130.4zM234.26 123.477l-2.588-6.494-2.535 6.494zm6.978 6.922h-4.124l-1.639-3.974h-7.504l-1.549 3.974h-4.02l7.31-17.498h4.01zM243.287 130.4v-17.498h3.688l7.683 11.685v-11.685h3.522v17.497h-3.803l-7.569-11.41v11.41z" style="fill:#fff;fill-opacity:1;fill-rule:nonzero;stroke:#f1e926;stroke-width:.407458;stroke-miterlimit:4;stroke-dasharray:none;stroke-opacity:1"/></svg>